<svg xmlns="http://www.w3.org/2000/svg" width="1700" height="980" viewBox="0 0 1700 980"><defs><style>.t{font:700 28px Arial;fill:#172033}.h{font:700 18px Arial;fill:#172033}.s{font:14px Arial;fill:#334155}.z{stroke-width:3;rx:15}.a{stroke:#475569;stroke-width:4;fill:none;marker-end:url(#m)}.p{stroke:#0f766e;stroke-width:5;fill:none;marker-end:url(#g)}</style><marker id="m" markerWidth="10" markerHeight="10" refX="9" refY="3" orient="auto"><path d="M0 0L0 6L9 3z" fill="#475569"/></marker><marker id="g" markerWidth="10" markerHeight="10" refX="9" refY="3" orient="auto"><path d="M0 0L0 6L9 3z" fill="#0f766e"/></marker></defs><rect width="1700" height="980" fill="white"/><text x="55" y="55" class="t">Ammonia/Urea Site — IEC 62443 Zones and Conduits HLD</text><rect x="580" y="90" width="540" height="90" fill="#dbeafe" stroke="#2563eb" class="z"/><text x="775" y="128" class="h">Enterprise Zone (L4/5)</text><text x="690" y="156" class="s">ERP • users • enterprise SOC • business analytics</text><rect x="580" y="230" width="540" height="95" fill="#fef3c7" stroke="#d97706" class="z"/><text x="770" y="270" class="h">Industrial DMZ (L3.5)</text><text x="655" y="299" class="s">Jump hosts • transfer services • replicated historian • update staging</text><path d="M850 180V230" class="a"/><rect x="580" y="380" width="540" height="95" fill="#e0e7ff" stroke="#4f46e5" class="z"/><text x="745" y="420" class="h">Site Operations Zone (L3)</text><text x="672" y="449" class="s">DCS servers • historian • engineering management</text><path d="M850 325V380" class="a"/><g><rect x="55" y="550" width="330" height="100" fill="#dcfce7" stroke="#16a34a" class="z"/><text x="130" y="590" class="h">Ammonia DCS Zone</text><text x="100" y="620" class="s">Controllers • HMI • operator stations</text><rect x="445" y="550" width="330" height="100" fill="#dcfce7" stroke="#16a34a" class="z"/><text x="535" y="590" class="h">Urea DCS Zone</text><text x="490" y="620" class="s">Controllers • HMI • granulation</text><rect x="835" y="550" width="330" height="100" fill="#fee2e2" stroke="#dc2626" class="z"/><text x="955" y="590" class="h">SIS / ESD</text><text x="880" y="620" class="s">Safety logic • safety engineering</text><rect x="1225" y="550" width="420" height="100" fill="#ffedd5" stroke="#ea580c" class="z"/><text x="1310" y="590" class="h">Package / Utility Zones</text><text x="1260" y="620" class="s">Compressors • boilers • water • refrigeration</text></g><path d="M720 475V515H220V550M800 475V515H610V550M900 475V515H1000V550M980 475V515H1435V550" class="a"/><g><rect x="55" y="750" width="330" height="95" fill="#f1f5f9" stroke="#64748b" class="z"/><text x="130" y="790" class="h">Field / I/O (L0/1)</text><text x="105" y="818" class="s">Transmitters • valves • drives</text><rect x="445" y="750" width="330" height="95" fill="#f1f5f9" stroke="#64748b" class="z"/><text x="520" y="790" class="h">Remote SCADA</text><text x="485" y="818" class="s">Tank farm • pipeline • loading</text><rect x="835" y="750" width="330" height="95" fill="#f3e8ff" stroke="#9333ea" class="z"/><text x="910" y="790" class="h">Electrical Zone</text><text x="875" y="818" class="s">Relays • PMS • IEC 61850</text><rect x="1225" y="750" width="420" height="95" fill="#ccfbf1" stroke="#0f766e" class="z"/><text x="1325" y="790" class="h">OT Security Zone</text><text x="1265" y="818" class="s">Nozomi mgmt • NTP • backup • identity</text></g><path d="M220 650V750M610 650V750M1435 650V750" class="a"/><path d="M1225 797H1165" class="p"/><text x="55" y="920" class="s">Every conduit defines permitted assets, protocol/function, direction, enforcement, monitoring, owner, target security level and failure behavior.</text></svg>